<svg width="20" height="20" viewBox="0 0 20 20" fill="none" xmlns="http://www.w3.org/2000/svg">
<g clip-path="url(#clip0_983_8377)">
<path d="M8.73047 0.0585938C6.89062 0.316406 5.39453 0.933594 3.90625 2.04688C3.48828 2.35938 2.50781 3.31641 2.17969 3.73047C1.05469 5.16406 0.390625 6.67969 0.0898438 8.49609C-0.0117188 9.11328 -0.0117188 10.8867 0.0898438 11.5039C0.386719 13.3125 1.05859 14.8359 2.17969 16.2695C2.45312 16.6172 3.37109 17.5352 3.73047 17.8164C5.14062 18.9297 6.69141 19.6094 8.49609 19.9102C9.11328 20.0117 10.8867 20.0117 11.5039 19.9102C13.6641 19.5508 15.4375 18.668 16.9883 17.168C18.5508 15.6602 19.5352 13.7461 19.9102 11.5039C20.0117 10.8867 20.0117 9.11328 19.9102 8.49609C19.7344 7.42188 19.4375 6.48828 18.9766 5.55078C18.5195 4.625 17.9375 3.80469 17.1875 3.03125C15.6641 1.46094 13.8203 0.492188 11.625 0.109375C11.0078 0.00390625 9.33594 -0.0273438 8.73047 0.0585938ZM16.1562 5.6875C16.5742 5.88281 16.8516 6.25781 16.9102 6.70312C16.9727 7.14844 16.8438 7.52344 16.5078 7.87109C16.3086 8.08203 8.71875 15.1641 8.04297 15.7734L7.85547 15.9414L5.54297 13.4688C4.27344 12.1094 3.17188 10.918 3.10156 10.8203C2.84375 10.4688 2.78516 9.91797 2.96094 9.51953C3.07422 9.26562 3.36719 8.96484 3.62891 8.83984C3.82031 8.74609 3.89453 8.73047 4.19922 8.73047C4.80859 8.73438 4.77734 8.70703 6.48438 10.5352C7.28906 11.3945 7.96094 12.1094 7.97656 12.1133C8.00391 12.1289 9.49219 10.75 13.7461 6.77734C14.2539 6.30469 14.7344 5.86719 14.8125 5.80469C15.1758 5.53125 15.7227 5.48438 16.1562 5.6875Z" fill="#25B52A"/>
<path d="M15.2148 5.63675C14.9141 5.73831 14.8008 5.82815 13.8594 6.70706C13.3359 7.19144 12.8125 7.67972 12.6953 7.78909C12.5781 7.89847 11.4805 8.9219 10.2617 10.0586C9.03906 11.1992 8.01953 12.1289 7.99219 12.1289C7.96875 12.1289 7.41406 11.5586 6.76172 10.8594C5.16406 9.14847 5.01172 8.99612 4.78516 8.87503C4.60938 8.78128 4.54688 8.76956 4.19922 8.76956C3.84766 8.76956 3.78906 8.78128 3.60547 8.87894C3.34375 9.01175 3.15234 9.20706 3.01953 9.46487C2.92188 9.64456 2.91016 9.71097 2.91016 10.043C2.91016 10.3828 2.92188 10.4375 3.02734 10.6407C3.11719 10.8125 3.71484 11.4805 5.48828 13.3789C6.77734 14.7617 7.84375 15.8946 7.85547 15.8946C7.87891 15.8985 7.98828 15.8008 13.2539 10.8867C16.4805 7.87503 16.6445 7.71487 16.7656 7.46878C16.8789 7.23831 16.8945 7.1719 16.8945 6.89456C16.8906 6.37112 16.6602 5.9844 16.2031 5.74222C16 5.63284 15.9102 5.6094 15.6641 5.59769C15.4922 5.58987 15.3086 5.6094 15.2148 5.63675Z" fill="white"/>
</g>
<defs>
<clipPath id="clip0_983_8377">
<rect width="20" height="20" fill="white"/>
</clipPath>
</defs>
</svg>
